<svg id="Layer_1" data-name="Layer 1" xmlns="http://www.w3.org/2000/svg" viewBox="0 0 189 44"><defs><style>.cls-1{fill:#fff;}.cls-2{fill:#f7931e;}.cls-3{fill:#4d4d40;}</style></defs><title>campsite_collective_inverse_logo</title><path class="cls-1" d="M40.34,20H38.13v-2.3a.85.85,0,0,0-.13-.57.85.85,0,0,0-.57-.13H36.21a.9.9,0,0,0-.58.13.84.84,0,0,0-.14.57V27.93a.84.84,0,0,0,.14.57.9.9,0,0,0,.58.13h1.22a.55.55,0,0,0,.7-.7V25.65h2.21V28.2c0,1.42-.75,2.13-2.26,2.13H35.54c-1.49,0-2.23-.71-2.23-2.13V17.4c0-1.41.74-2.11,2.23-2.11h2.54c1.51,0,2.26.7,2.26,2.11Z"/><path class="cls-1" d="M48.34,30.31l-.6-3.48H44.58L44,30.31H41.86l2.67-15h3.14l2.86,15Zm-3.5-5.23h2.62l-1.37-7.92Z"/><path class="cls-1" d="M54.25,30.31h-1.9v-15h2.38L57.3,24.6l2.56-9.31h2.38v15h-1.9v-11l-2.06,7.73h-2l-2.06-7.71Z"/><path class="cls-1" d="M64.55,15.29h4.92c1.48,0,2.23.7,2.23,2.11v5c0,1.41-.75,2.11-2.23,2.11H66.71v5.81H64.55Zm5,6.76V17.73a.77.77,0,0,0-.15-.56.85.85,0,0,0-.57-.13H66.71v5.73h2.11a.79.79,0,0,0,.57-.14A.82.82,0,0,0,69.54,22.05Z"/><path class="cls-1" d="M78.2,27.86V24.19c0-.29,0-.48-.13-.56a.82.82,0,0,0-.56-.14H75.73a1.9,1.9,0,0,1-2.18-2.13v-4c0-1.41.74-2.11,2.23-2.11h2.35c1.49,0,2.23.7,2.23,2.11v2.21H78.18V17.73a.77.77,0,0,0-.15-.56.85.85,0,0,0-.57-.13h-1a.9.9,0,0,0-.58.13.82.82,0,0,0-.14.56v3.34a.79.79,0,0,0,.14.56.89.89,0,0,0,.58.14H78.2c1.47,0,2.21.7,2.21,2.11V28.2c0,1.41-.75,2.11-2.26,2.11H75.83c-1.49,0-2.24-.7-2.24-2.11V26h2.19v1.87a.84.84,0,0,0,.14.57,1,1,0,0,0,.58.13h1a.89.89,0,0,0,.56-.13A.85.85,0,0,0,78.2,27.86Z"/><path class="cls-1" d="M82.61,15.29h2.16v15H82.61Z"/><path class="cls-1" d="M93.8,15.29V17H91.28V30.31H89.12V17H86.6V15.29Z"/><path class="cls-1" d="M97.71,28.56h4.34v1.75H95.53v-15h6.36V17H97.71v4.63h3.46v1.75H97.71Z"/><path class="cls-1" d="M114.15,20h-2.21v-2.3a.85.85,0,0,0-.13-.57.85.85,0,0,0-.57-.13H110a.85.85,0,0,0-.57.13.78.78,0,0,0-.15.57V27.93a.78.78,0,0,0,.15.57.85.85,0,0,0,.57.13h1.22a.55.55,0,0,0,.7-.7V25.65h2.21V28.2c0,1.42-.75,2.13-2.26,2.13h-2.54c-1.49,0-2.23-.71-2.23-2.13V17.4c0-1.41.74-2.11,2.23-2.11h2.54c1.51,0,2.26.7,2.26,2.11Z"/><path class="cls-1" d="M118.45,15.29h2.67c1.48,0,2.23.7,2.23,2.11V28.2c0,1.41-.75,2.11-2.23,2.11h-2.67c-1.5,0-2.25-.7-2.25-2.11V17.4C116.2,16,117,15.29,118.45,15.29Zm2.74,12.57V17.73a.77.77,0,0,0-.15-.56.85.85,0,0,0-.57-.13h-1.39a.85.85,0,0,0-.57.13.83.83,0,0,0-.13.56V27.86a.85.85,0,0,0,.13.57.91.91,0,0,0,.57.13h1.39a.91.91,0,0,0,.57-.13A.78.78,0,0,0,121.19,27.86Z"/><path class="cls-1" d="M127.76,28.56h3.72v1.75H125.6v-15h2.16Z"/><path class="cls-1" d="M135.37,28.56h3.72v1.75h-5.88v-15h2.16Z"/><path class="cls-1" d="M143,28.56h4.34v1.75h-6.53v-15h6.36V17H143v4.63h3.45v1.75H143Z"/><path class="cls-1" d="M156.22,20H154v-2.3a.85.85,0,0,0-.13-.57.83.83,0,0,0-.56-.13h-1.23a.85.85,0,0,0-.57.13.78.78,0,0,0-.15.57V27.93a.78.78,0,0,0,.15.57.85.85,0,0,0,.57.13h1.23a.83.83,0,0,0,.56-.13.85.85,0,0,0,.13-.57V25.65h2.21V28.2c0,1.42-.75,2.13-2.26,2.13h-2.54c-1.49,0-2.23-.71-2.23-2.13V17.4c0-1.41.74-2.11,2.23-2.11H154c1.51,0,2.26.7,2.26,2.11Z"/><path class="cls-1" d="M165,15.29V17h-2.52V30.31h-2.16V17h-2.52V15.29Z"/><path class="cls-1" d="M166.8,15.29H169v15H166.8Z"/><path class="cls-1" d="M177,15.29h2.24l-2.72,15h-3.07l-2.71-15H173l2,13Z"/><path class="cls-1" d="M183.2,28.56h4.35v1.75H181v-15h6.36V17H183.2v4.63h3.46v1.75H183.2Z"/><path class="cls-2" d="M19.72,11.86,11.63,3.77l-8.1,8.09a2.56,2.56,0,0,0-.28,3.29l8.38,14,8.38-14A2.58,2.58,0,0,0,19.72,11.86Zm-8.09-1,2.66,2.66a.85.85,0,0,1,.09,1.09l-2.75,4.78L8.88,14.63A.85.85,0,0,1,9,13.54Z"/><path class="cls-3" d="M19.44,34.68l-2.35-1.1,2.25-1a1.71,1.71,0,0,0,.82-2.27l-1.22-2.63L11.63,31l-7.31-3.4L3.09,30.26a1.71,1.71,0,0,0,.83,2.27l2.25,1-2.36,1.1L.92,36l1.23,2.63a1.7,1.7,0,0,0,2.16.87h0l7.31-3.41,7.31,3.41h0a1.72,1.72,0,0,0,2.17-.87L22.33,36Z"/></svg>