<svg id="Layer_1" data-name="Layer 1" xmlns="http://www.w3.org/2000/svg" viewBox="0 0 42 52"><defs><style>.cls-1{opacity:0.12;}.cls-2{fill:#fff;opacity:0.05;}.cls-3{fill:#2185d0;}.cls-4,.cls-5{fill:none;stroke:#fff;stroke-linecap:round;stroke-linejoin:round;}.cls-4{stroke-width:2.707px;}.cls-5{stroke-width:2px;}</style></defs><title>marker_tent copy</title><ellipse class="cls-1" cx="20.945" cy="46.663" rx="7.648" ry="4.663"/><path class="cls-2" d="M20.945,45.711C17,45.711,14.453,42,14.453,42A14.552,14.552,0,0,1,0,27.465V14.535A14.552,14.552,0,0,1,14.535,0h12.93A14.552,14.552,0,0,1,42,14.535v12.93A14.552,14.552,0,0,1,27.465,42h-.027S24.891,45.711,20.945,45.711Z"/><path class="cls-2" d="M20.945,45.711C18,45.711,15.059,41,15.059,41h-.524A13.551,13.551,0,0,1,1,27.465V14.535A13.551,13.551,0,0,1,14.535,1h12.93A13.551,13.551,0,0,1,41,14.535v12.93A13.551,13.551,0,0,1,27.465,41h-.633S23.891,45.711,20.945,45.711Z"/><path class="cls-2" d="M20.945,45.711C18,45.711,15.665,40,15.665,40h-1.13A12.549,12.549,0,0,1,2,27.465V14.535A12.549,12.549,0,0,1,14.535,2h12.93A12.549,12.549,0,0,1,40,14.535v12.93A12.549,12.549,0,0,1,27.465,40H26.226S23.891,45.711,20.945,45.711Z"/><path class="cls-3" d="M27.465,3H14.535A11.536,11.536,0,0,0,3,14.535v12.93A11.536,11.536,0,0,0,14.535,39h1.737l3.009,5.777a1.95,1.95,0,0,0,3.328,0L25.619,39h1.846A11.536,11.536,0,0,0,39,27.465V14.535A11.536,11.536,0,0,0,27.465,3Z"/><path class="cls-4" d="M14.991,17.684A9.447,9.447,0,0,0,13,23.114a8.108,8.108,0,0,0,8,8.216h0a8.1,8.1,0,0,0,8-8.2v-.011c0-2.691-1.336-4.545-2.851-6.587L21.085,9.685A18.255,18.255,0,0,0,19.2,12.038q-.941,1.265-1.882,2.545C16.535,15.609,15.711,16.616,14.991,17.684Z"/><path class="cls-5" d="M21,26.817a3.594,3.594,0,0,1-3.489-3.642"/></svg>