<svg id="Layer_1" data-name="Layer 1" xmlns="http://www.w3.org/2000/svg" viewBox="0 0 38 50"><defs><style>.cls-1{opacity:0.18;}.cls-2{opacity:0.07;}.cls-3{opacity:0.1;}.cls-4{fill:#fff;}.cls-5{fill:#663e28;}</style></defs><title>marker_tent</title><ellipse class="cls-1" cx="18.945" cy="44.663" rx="9.055" ry="4.337"/><path class="cls-2" d="M18.945,43.711A2.927,2.927,0,0,1,16.428,42.3L13.665,39h-1.13A12.549,12.549,0,0,1,0,26.465V13.535A12.549,12.549,0,0,1,12.535,1h12.93A12.549,12.549,0,0,1,38,13.535v12.93A12.549,12.549,0,0,1,25.465,39H24.226L21.5,42.239A2.951,2.951,0,0,1,18.945,43.711Z"/><path class="cls-3" d="M18.945,44.711A2.927,2.927,0,0,1,16.428,43.3L13.665,38h-1.13A12.549,12.549,0,0,1,0,25.465V12.535A12.549,12.549,0,0,1,12.535,0h12.93A12.549,12.549,0,0,1,38,12.535v12.93A12.549,12.549,0,0,1,25.465,38H24.226L21.5,43.239A2.951,2.951,0,0,1,18.945,44.711Z"/><path class="cls-4" d="M25.465,1H12.535A11.536,11.536,0,0,0,1,12.535v12.93A11.536,11.536,0,0,0,12.535,37h1.737l3.009,5.777a1.95,1.95,0,0,0,3.328,0L23.619,37h1.846A11.536,11.536,0,0,0,37,25.465V12.535A11.536,11.536,0,0,0,25.465,1Z"/><path class="cls-5" d="M33.564,24.92,20.082,9.243a1.428,1.428,0,0,0-2.164,0L4.436,24.92A1.427,1.427,0,1,0,6.6,26.781L10.11,22.7v3.37A1.427,1.427,0,0,0,11.537,27.5h3.731a1.428,1.428,0,0,0,1.269-.773L19,21.942l2.463,4.782a1.428,1.428,0,0,0,1.269.773h3.731A1.427,1.427,0,0,0,27.89,26.07V22.7l3.51,4.081a1.427,1.427,0,1,0,2.164-1.861Zm-8.527-.277H23.6l-3.334-6.47a1.426,1.426,0,0,0-2.536,0L14.4,24.643H12.963V19.381L19,12.362l6.037,7.019Z"/></svg>