<svg id="Layer_1" data-name="Layer 1" xmlns="http://www.w3.org/2000/svg" viewBox="0 0 38 50"><defs><style>.cls-1{opacity:0.18;}.cls-2,.cls-3{fill:#fff;}.cls-2{opacity:0.1;}.cls-3{opacity:0.13;}.cls-4{fill:#2185d0;}.cls-5,.cls-6{fill:none;stroke:#fff;stroke-linecap:round;stroke-linejoin:round;}.cls-5{stroke-width:2.707px;}.cls-6{stroke-width:2px;}</style></defs><title>marker_water</title><ellipse class="cls-1" cx="18.945" cy="44.663" rx="9.055" ry="4.337"/><path class="cls-2" d="M18.945,43.711A2.927,2.927,0,0,1,16.428,42.3L13.665,39h-1.13A12.549,12.549,0,0,1,0,26.465V13.535A12.549,12.549,0,0,1,12.535,1h12.93A12.549,12.549,0,0,1,38,13.535v12.93A12.549,12.549,0,0,1,25.465,39H24.226L21.5,42.239A2.951,2.951,0,0,1,18.945,43.711Z"/><path class="cls-3" d="M18.945,44.711A2.927,2.927,0,0,1,16.428,43.3L13.665,38h-1.13A12.549,12.549,0,0,1,0,25.465V12.535A12.549,12.549,0,0,1,12.535,0h12.93A12.549,12.549,0,0,1,38,12.535v12.93A12.549,12.549,0,0,1,25.465,38H24.226L21.5,43.239A2.951,2.951,0,0,1,18.945,44.711Z"/><path class="cls-4" d="M25.465,1H12.535A11.536,11.536,0,0,0,1,12.535v12.93A11.536,11.536,0,0,0,12.535,37h1.737l3.009,5.777a1.95,1.95,0,0,0,3.328,0L23.619,37h1.846A11.536,11.536,0,0,0,37,25.465V12.535A11.536,11.536,0,0,0,25.465,1Z"/><path class="cls-5" d="M12.991,15.684A9.447,9.447,0,0,0,11,21.114a8.108,8.108,0,0,0,8,8.216h0a8.1,8.1,0,0,0,8-8.2v-.011c0-2.691-1.336-4.545-2.851-6.587L19.085,7.685A18.255,18.255,0,0,0,17.2,10.038q-.941,1.265-1.882,2.545C14.535,13.609,13.711,14.616,12.991,15.684Z"/><path class="cls-6" d="M19,24.817a3.594,3.594,0,0,1-3.489-3.642"/></svg>