<svg id="Layer_1" data-name="Layer 1" xmlns="http://www.w3.org/2000/svg" viewBox="0 0 42 52"><defs><style>.cls-1{opacity:0.12;}.cls-2{opacity:0.03;}.cls-3{fill:#fff;}.cls-4{fill:#663e28;}</style></defs><title>marker_tent</title><ellipse class="cls-1" cx="20.945" cy="46.663" rx="7.648" ry="4.663"/><path class="cls-2" d="M20.945,45.711C17,45.711,14.453,42,14.453,42A14.552,14.552,0,0,1,0,27.465V14.535A14.552,14.552,0,0,1,14.535,0h12.93A14.552,14.552,0,0,1,42,14.535v12.93A14.552,14.552,0,0,1,27.465,42h-.027S24.891,45.711,20.945,45.711Z"/><path class="cls-2" d="M20.945,45.711C18,45.711,15.059,41,15.059,41h-.524A13.551,13.551,0,0,1,1,27.465V14.535A13.551,13.551,0,0,1,14.535,1h12.93A13.551,13.551,0,0,1,41,14.535v12.93A13.551,13.551,0,0,1,27.465,41h-.633S23.891,45.711,20.945,45.711Z"/><path class="cls-2" d="M20.945,45.711C18,45.711,15.665,40,15.665,40h-1.13A12.549,12.549,0,0,1,2,27.465V14.535A12.549,12.549,0,0,1,14.535,2h12.93A12.549,12.549,0,0,1,40,14.535v12.93A12.549,12.549,0,0,1,27.465,40H26.226S23.891,45.711,20.945,45.711Z"/><path class="cls-3" d="M27.465,3H14.535A11.536,11.536,0,0,0,3,14.535v12.93A11.536,11.536,0,0,0,14.535,39h1.737l3.009,5.777a1.95,1.95,0,0,0,3.328,0L25.619,39h1.846A11.536,11.536,0,0,0,39,27.465V14.535A11.536,11.536,0,0,0,27.465,3Z"/><path class="cls-4" d="M35.564,26.92l-.094-.109V22.857a1,1,0,0,0-2,0v1.628L22.082,11.243a1.428,1.428,0,0,0-2.164,0L8.53,24.485V22.857a1,1,0,1,0-2,0v3.954l-.094.109A1.427,1.427,0,1,0,8.6,28.781L12.11,24.7v3.37A1.427,1.427,0,0,0,13.537,29.5h3.731a1.428,1.428,0,0,0,1.269-.773L21,23.942l2.463,4.782a1.428,1.428,0,0,0,1.269.773h3.731A1.427,1.427,0,0,0,29.89,28.07V24.7l3.51,4.081a1.427,1.427,0,1,0,2.164-1.861Zm-8.527-.277H25.6l-3.333-6.47a1.428,1.428,0,0,0-2.538,0L16.4,26.643H14.963V21.381L21,14.362l6.037,7.019Z"/></svg>